<svg width="27" height="27" viewBox="0 0 27 27" fill="none" xmlns="http://www.w3.org/2000/svg">
<path fill-rule="evenodd" clip-rule="evenodd" d="M6 0C2.68629 0 0 2.68629 0 6V21C0 24.3137 2.68629 27 6 27H21C24.3137 27 27 24.3137 27 21V6C27 2.68629 24.3137 0 21 0H6ZM11.75 4.75C11.75 3.7835 12.5335 3 13.5 3C14.4665 3 15.25 3.7835 15.25 4.75V10.75C15.25 11.3023 15.6977 11.75 16.25 11.75H22.25C23.2165 11.75 24 12.5335 24 13.5C24 14.4665 23.2165 15.25 22.25 15.25H16.25C15.6977 15.25 15.25 15.6977 15.25 16.25V22.25C15.25 23.2165 14.4665 24 13.5 24C12.5335 24 11.75 23.2165 11.75 22.25V16.25C11.75 15.6977 11.3023 15.25 10.75 15.25H4.75C3.7835 15.25 3 14.4665 3 13.5C3 12.5335 3.7835 11.75 4.75 11.75H10.75C11.3023 11.75 11.75 11.3023 11.75 10.75V4.75Z" fill="#2CB67D"/>
</svg>
